<svg xmlns="http://www.w3.org/2000/svg" width="480pt" height="290pt" viewBox="0 0 480 290" version="1.1" xmlns:xlink="http://www.w3.org/1999/xlink">
  <g id="surface2" transform="matrix(1,0,0,1,0.5,-0.5)" data-tpl_matrix="1,0,0,1,-0.5,-0.5">
    <path style="stroke:none;fill-rule:evenodd;fill:rgb(99.215686%,72.549020%,7.450980%);fill-opacity:1" d="M 240.500000 130.250000 L 203.101562 92.851562 L 212.500000 83.449219 L 203.398438 74.300781 L 184.851562 92.851562 L 240.500000 148.500000 L 269.398438 119.550781 L 260.300781 110.449219 L 240.500000 130.250000 "/>
    <path style="stroke:none;fill-rule:evenodd;fill:rgb(99.215686%,72.549020%,7.450980%);fill-opacity:1" d="M 277.550781 74.351562 L 240.449219 37.25 L 211.550781 66.199219 L 220.699219 75.300781 L 240.449219 55.5 L 260.300781 75.300781 L 268.449219 83.449219 L 277.851562 92.898438 L 268.449219 102.300781 L 277.550781 111.449219 L 296.101562 92.898438 L 277.550781 74.351562 "/>
    <path style="stroke:none;fill-rule:evenodd;fill:rgb(0.000000%,23.921569%,47.450980%);fill-opacity:1" d="M 285.050781 52.500000 L 270.398438 67.148438 L 278.550781 75.300781 L 285.050781 68.851562 L 310.050781 93.851562 L 285.050781 118.851562 L 278.550781 112.398438 L 269.449219 103.250000 L 260.050781 93.851562 L 269.449219 84.449219 L 261.300781 76.250000 L 243.699219 93.851562 L 261.300781 111.449219 L 270.398438 120.550781 L 285.050781 135.199219 L 326.398438 93.851562 L 285.050781 52.500000 "/>
    <path style="stroke:none;fill-rule:evenodd;fill:rgb(0.000000%,23.921569%,47.450980%);fill-opacity:1" d="M 211.550781 66.148438 L 196.898438 51.5 L 155.550781 92.851562 L 196.898438 134.199219 L 211.550781 119.550781 L 203.351562 111.398438 L 196.898438 117.851562 L 171.898438 92.851562 L 196.898438 67.851562 L 203.351562 74.300781 L 212.5 83.449219 L 221.898438 92.851562 L 212.5 102.25 L 220.648438 110.449219 L 238.25 92.851562 L 220.648438 75.25 L 211.550781 66.148438 "/>
  </g>
  <g id="surface4">
    <text style="fill:rgb(0,61,120)" font-family="Helvetica" font-size="50" transform="matrix(1,0,0,1,171.75,201.75)" xml:space="preserve"><![CDATA[P M C]]></text>
    <text style="fill:rgb(0,61,121)" font-family="Helvetica" font-size="35" transform="matrix(1,0,0,1,88.85,251.25)" xml:space="preserve"><![CDATA[Rectifiers & Testers]]></text>
  </g>
</svg>